<svg width="130" height="54" viewBox="0 0 130 54" fill="none" xmlns="http://www.w3.org/2000/svg">
<g clip-path="url(#clip0_50_556)">
<path d="M41.5766 15.8467C42.1913 15.9205 42.7576 16.2129 43.1693 16.6691C43.5809 17.1252 43.8097 17.7138 43.8125 18.3245V45.5718C43.82 45.9006 43.7561 46.2272 43.6253 46.5297C43.4944 46.8322 43.2996 47.1037 43.0538 47.3261C42.6617 47.7286 42.1397 47.9841 41.5774 48.0486V52.7206C41.5774 52.8079 41.5424 52.8917 41.4799 52.9536C41.4175 53.0155 41.3327 53.0505 41.2442 53.0509C41.1552 53.0509 41.0698 53.0162 41.0067 52.9543C40.9435 52.8924 40.9078 52.8084 40.9074 52.7206V48.0486C40.3456 47.9833 39.8242 47.7279 39.4319 47.3261C39.1864 47.1036 38.9918 46.8321 38.8612 46.5295C38.7307 46.227 38.6672 45.9005 38.675 45.5718V18.3245C38.676 17.7139 38.9036 17.1248 39.3149 16.6683C39.7261 16.2119 40.2926 15.9196 40.9074 15.8467V7.37996C40.9078 7.29226 40.9436 7.20833 41.0067 7.14656C41.0698 7.0848 41.1553 7.05024 41.2442 7.05048C41.3327 7.05071 41.4174 7.08553 41.4799 7.14729C41.5424 7.20906 41.5774 7.29273 41.5774 7.37996L41.5766 15.8467V15.8467Z" fill="url(#paint0_linear_50_556)"/>
<path d="M32.4149 8.84628C33.0286 8.92191 33.5935 9.21494 34.0044 9.67078C34.4152 10.1266 34.6441 10.7142 34.6482 11.324V38.5713C34.6557 38.8999 34.5919 39.2263 34.461 39.5285C34.3302 39.8308 34.1353 40.102 33.8894 40.3239C33.4985 40.7273 32.977 40.9835 32.4149 41.0482V47.7969C32.4137 47.8615 32.3935 47.9245 32.3565 47.9779C32.3196 48.0314 32.2677 48.0731 32.2071 48.0979C32.1465 48.1226 32.0798 48.1294 32.0154 48.1174C31.9509 48.1053 31.8914 48.075 31.8442 48.0301C31.7815 47.9685 31.7461 47.885 31.7457 47.7977V41.0482C31.1835 40.983 30.6619 40.7269 30.2703 40.3239C30.025 40.1018 29.8306 39.8307 29.7001 39.5286C29.5695 39.2265 29.5058 38.9005 29.5133 38.5722V11.3249C29.5152 10.7147 29.743 10.1261 30.1539 9.66969C30.5648 9.21331 31.1305 8.92052 31.7448 8.84628V0.380416C31.7448 0.292797 31.7801 0.208767 31.8429 0.146811C31.9058 0.0848552 31.991 0.0500488 32.0798 0.0500488C32.1685 0.0507416 32.2533 0.0857705 32.316 0.147577C32.3787 0.209383 32.4142 0.293011 32.4149 0.380416V8.84628Z" fill="url(#paint1_linear_50_556)"/>
<path d="M121.358 22.4797C121.07 22.4734 120.783 22.5253 120.516 22.6321C120.249 22.7388 120.007 22.8983 119.805 23.1006C119.604 23.3008 119.446 23.5385 119.339 23.7999C119.233 24.0612 119.18 24.341 119.184 24.6226C119.175 25.0159 119.285 25.403 119.5 25.7341C119.715 26.0653 120.026 26.3255 120.392 26.4812C121.537 26.899 122.709 27.2452 123.897 27.5173C125.262 27.8311 126.531 28.4583 127.603 29.3476C128.762 30.4403 129.343 31.9826 129.343 33.9974C129.346 34.9436 129.158 35.881 128.792 36.7554C128.425 37.6299 127.887 38.4242 127.207 39.0925C126.528 39.7615 125.722 40.2916 124.834 40.6524C123.946 41.0132 122.995 41.1975 122.035 41.1948H116.562C116.23 41.1971 115.901 41.1328 115.595 41.0059C115.289 40.8789 115.012 40.692 114.781 40.4564C114.537 40.233 114.344 39.9612 114.214 39.6588C114.085 39.3564 114.021 39.0303 114.029 38.7021V38.6606C114.035 37.9979 114.303 37.3637 114.776 36.8931C115.25 36.4224 115.89 36.1524 116.562 36.1404H122.24C122.672 36.1454 123.095 36.0227 123.455 35.7881C123.816 35.5535 124.096 35.2177 124.261 34.8242C124.37 34.5628 124.425 34.2828 124.423 34.0001C124.422 33.6286 124.307 33.2661 124.094 32.9596C123.881 32.6531 123.58 32.4167 123.229 32.2811C123.02 32.1901 121.846 31.8456 119.708 31.2529C118.331 30.9285 117.056 30.2754 115.995 29.3511C114.837 28.2381 114.258 26.6631 114.258 24.6253C114.266 22.7177 115.038 20.8905 116.407 19.5426C117.777 18.1936 119.631 17.4323 121.567 17.4244H125.43C126.107 17.4262 126.755 17.6921 127.233 18.1638C127.711 18.6356 127.981 19.2748 127.982 19.9418V19.9842C127.991 20.3124 127.929 20.6386 127.8 20.9411C127.671 21.2436 127.478 21.5155 127.233 21.7385C127 21.9776 126.72 22.1671 126.41 22.2953C126.1 22.4235 125.766 22.4878 125.43 22.4841L121.358 22.4797V22.4797ZM89.6918 49.6775C89.0234 49.6697 88.3846 49.4047 87.9116 48.939C87.4387 48.4733 87.169 47.8438 87.1601 47.1847V29.2707C87.1691 26.9228 87.8858 24.6306 89.2161 22.6837C90.2129 21.2282 91.5238 20.0082 93.055 19.1111C94.5862 18.2139 96.2996 17.6618 98.0726 17.4944C99.8456 17.327 101.634 17.5484 103.31 18.1427C104.986 18.737 106.508 19.6896 107.767 20.9321C109.025 22.1744 109.988 23.6764 110.586 25.3298C111.184 26.9832 111.403 28.7469 111.226 30.4938C111.05 32.2407 110.483 33.9272 109.566 35.4318C108.648 36.9364 107.404 38.2217 105.922 39.195C103.94 40.499 101.61 41.1951 99.227 41.1957C96.1875 41.1957 93.8681 40.5076 92.2951 39.134V47.1847C92.283 47.8441 92.0112 48.473 91.5372 48.9383C91.0632 49.4035 90.4242 49.6687 89.7554 49.6775H89.6918V49.6775ZM99.227 36.0971C100.143 36.1057 101.052 35.9354 101.901 35.5961C102.75 35.2568 103.523 34.7552 104.175 34.1202C105.156 33.1637 105.825 31.9401 106.096 30.6062C106.367 29.2724 106.227 27.8891 105.696 26.6338C105.164 25.3785 104.264 24.3084 103.112 23.5607C101.959 22.813 100.607 22.4218 99.227 22.4373C97.8576 22.4397 96.5194 22.8413 95.3808 23.5914C94.2421 24.3416 93.3537 25.4069 92.8272 26.6534C92.3016 27.8993 92.1614 29.2706 92.4242 30.5948C92.6871 31.919 93.3412 33.137 94.3044 34.0955C94.9419 34.7441 95.7079 35.2565 96.5547 35.6008C97.4016 35.9452 98.3112 36.1141 99.227 36.0971V36.0971ZM79.6199 14.739C79.1386 14.7416 78.664 14.6271 78.2382 14.4057C77.8124 14.1843 77.4485 13.8628 77.1788 13.4697C76.9096 13.0763 76.7432 12.6235 76.6946 12.1514C76.6459 11.6793 76.7165 11.2026 76.9 10.764C77.0835 10.3253 77.3742 9.93821 77.7463 9.63721C78.1183 9.33622 78.5601 9.13066 79.0323 9.03887C79.5046 8.94653 79.9927 8.97053 80.4534 9.10874C80.9141 9.24696 81.333 9.49512 81.6732 9.83122C81.9507 10.0941 82.1716 10.4096 82.3224 10.7587C82.4733 11.1078 82.5511 11.4834 82.5511 11.8629C82.5511 12.2424 82.4733 12.618 82.3224 12.9671C82.1716 13.3162 81.9507 13.6317 81.6732 13.8946C81.4072 14.1657 81.088 14.3805 80.7349 14.5257C80.3818 14.6709 80.0024 14.7435 79.6199 14.739V14.739ZM79.6423 17.4226C79.9753 17.4155 80.306 17.4778 80.6129 17.6054C80.9197 17.7329 81.1959 17.9229 81.4232 18.1628C81.664 18.3929 81.8547 18.6689 81.9837 18.974C82.1128 19.2791 82.1775 19.6069 82.1739 19.9374V38.703C82.1651 39.3618 81.8956 39.9912 81.4228 40.4569C80.95 40.9226 80.3114 41.1877 79.6432 41.1957H79.5984C79.2629 41.2004 78.9299 41.1373 78.62 41.0105C78.31 40.8837 78.0296 40.6957 77.796 40.4581C77.5521 40.2344 77.3586 39.9626 77.2281 39.6604C77.0975 39.3582 77.0328 39.0323 77.0381 38.7038V19.9366C77.0368 19.6057 77.1032 19.2779 77.2335 18.973C77.3637 18.6681 77.555 18.3922 77.796 18.1619C78.0294 17.9237 78.3098 17.7351 78.62 17.6078C78.9301 17.4805 79.2634 17.4171 79.5993 17.4217H79.6423V17.4226ZM51.0948 49.6784C50.4264 49.6697 49.7877 49.4045 49.3143 48.9391C48.841 48.4737 48.5702 47.8447 48.5596 47.1856V29.2707C48.5685 26.9228 49.2852 24.6306 50.6155 22.6819C51.6123 21.2259 52.9234 20.0053 54.4549 19.1077C55.9864 18.21 57.7003 17.6576 59.4738 17.4901C61.2473 17.3225 63.0364 17.5438 64.7129 18.1383C66.3895 18.7328 67.9118 19.6856 69.1709 20.9285C70.8528 22.5909 71.9972 24.7076 72.4594 27.0111C72.9217 29.3146 72.681 31.7016 71.7679 33.8702C70.8534 36.0398 69.3071 37.8934 67.3246 39.1967C65.3418 40.5 63.0121 41.1956 60.6291 41.1957C57.5914 41.1957 55.2721 40.5067 53.6972 39.1331V47.1847C53.6865 47.8442 53.4154 48.4736 52.9415 48.9391C52.4675 49.4046 51.8282 49.6695 51.1593 49.6775H51.0957L51.0948 49.6784ZM60.6283 36.098C61.5443 36.1066 62.453 35.9363 63.302 35.5971C64.151 35.2578 64.9235 34.7561 65.575 34.1211C66.2256 33.4862 66.7421 32.7303 67.0946 31.8973C67.4471 31.0643 67.6285 30.1707 67.6285 29.2681C67.6285 28.3655 67.4471 27.4718 67.0946 26.6388C66.7421 25.8058 66.2256 25.05 65.575 24.415C64.9237 23.7798 64.1512 23.278 63.3022 22.9387C62.4531 22.5994 61.5443 22.4293 60.6283 22.4381C59.2592 22.4422 57.9218 22.8445 56.7835 23.5947C55.6453 24.3448 54.7568 25.4094 54.2293 26.6552C53.7037 27.9008 53.5636 29.2719 53.8266 30.5959C54.0897 31.9198 54.7441 33.1375 55.7074 34.0955C56.345 34.7435 57.1108 35.2555 57.9572 35.5998C58.8036 35.9441 59.7128 36.1134 60.6283 36.0971V36.098ZM12.4064 22.4797C11.4909 22.4636 10.5818 22.6331 9.73533 22.9775C8.8889 23.322 8.1232 23.8341 7.48562 24.4822C6.19818 25.7729 5.47668 27.5107 5.47668 29.3211C5.47668 31.1314 6.19818 32.8693 7.48562 34.16C8.12713 34.8012 8.89394 35.3073 9.73962 35.6477C10.5853 35.9881 11.4922 36.1557 12.4055 36.1404C13.7795 36.1475 15.1244 35.7504 16.2683 34.9998C17.4121 34.2493 18.303 33.1794 18.8269 31.9269C19.1736 31.0957 19.3491 30.2044 19.3438 29.3052C19.3588 28.4069 19.1863 27.5152 18.8369 26.6855C18.4875 25.8558 17.9688 25.1058 17.3129 24.4822C16.6777 23.8347 15.9143 23.3228 15.0702 22.9783C14.226 22.6339 13.319 22.4641 12.4055 22.4797H12.4064ZM12.4064 17.4217C13.995 17.3986 15.5716 17.6962 17.0392 18.2962C18.5068 18.8963 19.8343 19.7861 20.9401 20.9109C22.0798 21.9979 22.9819 23.3034 23.5907 24.747C24.1996 26.1906 24.5024 27.7418 24.4805 29.3052V38.7038C24.4875 39.0322 24.4241 39.3582 24.2944 39.6607C24.1647 39.9632 23.9717 40.2352 23.728 40.459C23.497 40.6941 23.2201 40.8806 22.914 41.0074C22.6079 41.1342 22.279 41.1985 21.9471 41.1966H21.8835C21.5514 41.1997 21.2223 41.1359 20.9162 41.0091C20.6101 40.8823 20.3335 40.6951 20.1034 40.459C19.8576 40.2365 19.6627 39.9648 19.5318 39.6622C19.4008 39.3595 19.3367 39.0328 19.3438 38.7038C17.7555 40.3663 15.4433 41.1966 12.4055 41.1966C10.8184 41.2195 9.24328 40.922 7.77698 40.3226C6.31068 39.7232 4.98418 38.8344 3.879 37.711C2.75703 36.6093 1.86667 35.3001 1.25899 33.8584C0.651301 32.4167 0.338242 30.8709 0.337769 29.3096C0.337527 27.7484 0.650262 26.2025 1.25799 24.7608C1.86572 23.3191 2.75646 22.0102 3.879 20.9091C4.98366 19.7849 6.31004 18.8956 7.77644 18.296C9.24285 17.6964 10.8182 17.3991 12.4055 17.4226V17.4217H12.4064Z" fill="#312A7F"/>
</g>
<defs>
<linearGradient id="paint0_linear_50_556" x1="38.6741" y1="43.9429" x2="38.6741" y2="7.37289" gradientUnits="userSpaceOnUse">
<stop stop-color="#F50057"/>
<stop offset="1" stop-color="#651FFF"/>
</linearGradient>
<linearGradient id="paint1_linear_50_556" x1="29.5124" y1="0.290315" x2="29.5124" y2="47.5972" gradientUnits="userSpaceOnUse">
<stop stop-color="#F50057"/>
<stop offset="1" stop-color="#651FFF"/>
</linearGradient>
<clipPath id="clip0_50_556">
<rect width="129" height="53" fill="white" transform="translate(0.34314 0.0500488)"/>
</clipPath>
</defs>
</svg>
